REM DIRINDEX 1\2\6,1\2\7,1\2\8,1\2\9,1\3\10,1\3\11,1\4\12,1\4\13,1\4\14,1\5\15,1\5\16,1\5\17
REM DIRNAME folder01,folder02,folder03,folder04,folder05,folder06,folder07,folder08,folder09,folder10,folder11,folder12,folder13,folder14,folder15,folder16,folder17
TITLE ""
FILE "1400_2_sec04_0385_0400.mp3" MP3
  TRACK 01 AUDIO
    TITLE "0:"
    INDEX 01 00:00:00
  TRACK 02 AUDIO
    TITLE "13:cjc029_2350"
    INDEX 01 00:00:17
  TRACK 03 AUDIO
    TITLE "0:"
    INDEX 01 00:01:28
  TRACK 04 AUDIO
    TITLE "14:cjc029_2351"
    INDEX 01 00:01:32
  TRACK 05 AUDIO
    TITLE "0:"
    INDEX 01 00:04:48
  TRACK 06 AUDIO
    TITLE "13:cjc029_2352"
    INDEX 01 00:05:28
  TRACK 07 AUDIO
    TITLE "0:"
    INDEX 01 00:06:47
  TRACK 08 AUDIO
    TITLE "14:cjc029_2353"
    INDEX 01 00:06:53
  TRACK 09 AUDIO
    TITLE "0:"
    INDEX 01 00:08:28
  TRACK 10 AUDIO
    TITLE "13:cjc029_2354"
    INDEX 01 00:09:08
  TRACK 11 AUDIO
    TITLE "0:"
    INDEX 01 00:10:23
  TRACK 12 AUDIO
    TITLE "14:cjc029_2355"
    INDEX 01 00:10:27
  TRACK 13 AUDIO
    TITLE "0:"
    INDEX 01 00:14:68
  TRACK 14 AUDIO
    TITLE "13:cjc029_2356"
    INDEX 01 00:15:46
  TRACK 15 AUDIO
    TITLE "0:"
    INDEX 01 00:16:67
  TRACK 16 AUDIO
    TITLE "14:cjc029_2357"
    INDEX 01 00:17:00
  TRACK 17 AUDIO
    TITLE "0:"
    INDEX 01 00:18:23
  TRACK 18 AUDIO
    TITLE "13:cjc029_2358"
    INDEX 01 00:19:07
  TRACK 19 AUDIO
    TITLE "0:"
    INDEX 01 00:20:22
  TRACK 20 AUDIO
    TITLE "14:cjc029_2359"
    INDEX 01 00:20:32
  TRACK 21 AUDIO
    TITLE "0:"
    INDEX 01 00:21:53
  TRACK 22 AUDIO
    TITLE "13:cjc029_2360"
    INDEX 01 00:22:36
  TRACK 23 AUDIO
    TITLE "0:"
    INDEX 01 00:23:53
  TRACK 24 AUDIO
    TITLE "14:cjc029_2361"
    INDEX 01 00:23:57
  TRACK 25 AUDIO
    TITLE "0:"
    INDEX 01 00:26:11
  TRACK 26 AUDIO
    TITLE "13:cjc029_2362"
    INDEX 01 00:26:67
  TRACK 27 AUDIO
    TITLE "0:"
    INDEX 01 00:28:04
  TRACK 28 AUDIO
    TITLE "14:cjc029_2363"
    INDEX 01 00:28:08
  TRACK 29 AUDIO
    TITLE "0:"
    INDEX 01 00:29:52
  TRACK 30 AUDIO
    TITLE "13:cjc029_2364"
    INDEX 01 00:30:34
  TRACK 31 AUDIO
    TITLE "0:"
    INDEX 01 00:31:47
  TRACK 32 AUDIO
    TITLE "14:cjc029_2365"
    INDEX 01 00:31:55
  TRACK 33 AUDIO
    TITLE "0:"
    INDEX 01 00:33:11
  TRACK 34 AUDIO
    TITLE "13:cjc029_2366"
    INDEX 01 00:33:68
  TRACK 35 AUDIO
    TITLE "0:"
    INDEX 01 00:35:04
  TRACK 36 AUDIO
    TITLE "14:cjc029_2367"
    INDEX 01 00:35:10
  TRACK 37 AUDIO
    TITLE "0:"
    INDEX 01 00:39:07
  TRACK 38 AUDIO
    TITLE "13:cjc029_2368"
    INDEX 01 00:39:62
  TRACK 39 AUDIO
    TITLE "0:"
    INDEX 01 00:40:72
  TRACK 40 AUDIO
    TITLE "14:cjc029_2369"
    INDEX 01 00:41:00
  TRACK 41 AUDIO
    TITLE "0:"
    INDEX 01 00:43:42
  TRACK 42 AUDIO
    TITLE "13:cjc029_2370"
    INDEX 01 00:44:28
  TRACK 43 AUDIO
    TITLE "0:"
    INDEX 01 00:45:26
  TRACK 44 AUDIO
    TITLE "14:cjc029_2371"
    INDEX 01 00:45:32
  TRACK 45 AUDIO
    TITLE "0:"
    INDEX 01 00:47:68
  TRACK 46 AUDIO
    TITLE "12:cjc029_2372"
    INDEX 01 00:49:43
  TRACK 47 AUDIO
    TITLE "0:"
    INDEX 01 00:50:74
  TRACK 48 AUDIO
    TITLE "13:cjc029_2373"
    INDEX 01 00:52:02
  TRACK 49 AUDIO
    TITLE "0:"
    INDEX 01 00:53:21
  TRACK 50 AUDIO
    TITLE "14:cjc029_2374"
    INDEX 01 00:53:23
  TRACK 51 AUDIO
    TITLE "0:"
    INDEX 01 00:55:22
  TRACK 52 AUDIO
    TITLE "13:cjc029_2375"
    INDEX 01 00:56:08
  TRACK 53 AUDIO
    TITLE "0:"
    INDEX 01 00:57:29
  TRACK 54 AUDIO
    TITLE "14:cjc029_2376"
    INDEX 01 00:57:33
  TRACK 55 AUDIO
    TITLE "0:"
    INDEX 01 01:00:37
  TRACK 56 AUDIO
    TITLE "13:cjc029_2377"
    INDEX 01 01:01:19
  TRACK 57 AUDIO
    TITLE "0:"
    INDEX 01 01:02:50
  TRACK 58 AUDIO
    TITLE "14:cjc029_2378"
    INDEX 01 01:02:57
  TRACK 59 AUDIO
    TITLE "0:"
    INDEX 01 01:05:11
  TRACK 60 AUDIO
    TITLE "13:cjc029_2379"
    INDEX 01 01:05:68
  TRACK 61 AUDIO
    TITLE "0:"
    INDEX 01 01:07:02
  TRACK 62 AUDIO
    TITLE "14:cjc029_2380"
    INDEX 01 01:07:08
  TRACK 63 AUDIO
    TITLE "0:"
    INDEX 01 01:08:29
  TRACK 64 AUDIO
    TITLE "13:cjc029_2381"
    INDEX 01 01:09:18
  TRACK 65 AUDIO
    TITLE "0:"
    INDEX 01 01:10:41
  TRACK 66 AUDIO
    TITLE "14:cjc029_2382"
    INDEX 01 01:10:49
  TRACK 67 AUDIO
    TITLE "0:"
    INDEX 01 01:11:68
